PathFileType	4	(X/Y/Z)	C:/Users/opensim2020/Desktop/walking_exp_matlab/subject06_walking17_straight_01.trc																																																																																																																																					
DataRate	CameraRate	NumFrames	NumMarkers	Units	OrigDataRate	OrigDataStartFrame	OrigNumFrames																																																																																																																																	
100	100	5	45	mm	100	1209	305																																																																																																																																	
Frame#	Time	LFHD			RFHD			LBHD			RBHD			C7			T10			CLAV			STRN			RBAK			LSHO			LUPA			LELB			LFRM			LWRA			LWRB			LFIN			RSHO			RUPA			RELB			RFRM			RWRA			RWRB			RFIN			LASI			RASI			LPSI			RPSI			LTHI			LKNE			LTIB			LANK			LHEE			LTOE			RTHI			RKNE			RTIB			RANK			RHEE			RTOE			*39			*40			*41			*42			*43			*44		
		X1	Y1	Z1	X2	Y2	Z2	X3	Y3	Z3	X4	Y4	Z4	X5	Y5	Z5	X6	Y6	Z6	X7	Y7	Z7	X8	Y8	Z8	X9	Y9	Z9	X10	Y10	Z10	X11	Y11	Z11	X12	Y12	Z12	X13	Y13	Z13	X14	Y14	Z14	X15	Y15	Z15	X16	Y16	Z16	X17	Y17	Z17	X18	Y18	Z18	X19	Y19	Z19	X20	Y20	Z20	X21	Y21	Z21	X22	Y22	Z22	X23	Y23	Z23	X24	Y24	Z24	X25	Y25	Z25	X26	Y26	Z26	X27	Y27	Z27	X28	Y28	Z28	X29	Y29	Z29	X30	Y30	Z30	X31	Y31	Z31	X32	Y32	Z32	X33	Y33	Z33	X34	Y34	Z34	X35	Y35	Z35	X36	Y36	Z36	X37	Y37	Z37	X38	Y38	Z38	X39	Y39	Z39	X40	Y40	Z40	X41	Y41	Z41	X42	Y42	Z42	X43	Y43	Z43	X44	Y44	Z44	X45	Y45	Z45
																																																																																																																																								
229	2.28	427.77991	1661.7561	-1106.85022	409.13922	1647.40637	-976.81085	296.48691	1609.15381	-1128.64441	278.94946	1599.23181	-1000.80957	285.72369	1450.6958	-1066.9823	238.14529	1123.67261	-1049.78955	393.87497	1370.88855	-1060.1355	427.49899	1194.44238	-1064.83423	206.18912	1284.30542	-985.14252	346.91299	1401.74622	-1223.63354	372.45801	1201.17615	-1295.39087	393.20102	1089.70557	-1307.60388	484.00906	968.98773	-1313.03198	588.34937	906.42889	-1253.62781	543.96661	867.30811	-1292.73315	620.50598	820.6424	-1281.72449	345.78635	1407.32861	-900.97308	295.4574	1212.26221	-813.31696	297.03107	1090.65088	-798.23907	298.82983	970.96259	-776.29309	342.54669	823.8916	-798.3205	287.68939	833.53577	-761.38196	314.9357	753.41663	-754.90851	406.70251	955.237	-1158.81567	414.65222	966.8844	-938.75342	250.19234	989.56769	-1124.88452	262.23911	991.97931	-956.85974	302.91785	645.20844	-1200.36731	275.69501	483.12823	-1175.88794	198.46298	236.69981	-1158.63367	171.77525	67.62441	-1104.17126	130.17593	57.54493	-1058.44312	315.58951	33.52431	-1100.25452	415.61844	639.69598	-869.29694	453.88077	522.82611	-900.0072	489.45163	262.59225	-893.31665	545.19464	82.59225	-931.53857	518.54254	50.87755	-979.47314	705.14954	79.69047	-930.51959	320.4314	1699.66931	-1062.21643	NaN	NaN	NaN	NaN	NaN	NaN	NaN	NaN	NaN	NaN	NaN	NaN	NaN	NaN	NaN
230	2.29	433.43121	1660.98206	-1105.81616	414.84915	1646.54749	-975.83075	302.12793	1608.38599	-1127.58325	284.70309	1598.4021	-999.78931	291.48843	1449.85986	-1065.98279	244.18845	1122.71423	-1048.95557	399.7016	1370.14185	-1059.34521	433.52676	1193.72937	-1064.17041	212.08748	1283.24854	-984.23975	352.47357	1401.0603	-1222.79431	377.92346	1200.43457	-1294.35388	398.84286	1089.13245	-1306.71875	490.83649	969.17316	-1312.08081	595.34692	907.66412	-1251.98816	551.33118	867.97833	-1290.9657	628.28864	822.02313	-1279.64502	351.69437	1406.39124	-900.08209	301.28119	1211.29797	-812.53857	302.77136	1089.68835	-797.51825	304.34756	970.00348	-775.51959	347.82568	822.87219	-797.5293	293.12744	832.64856	-760.43713	320.07315	752.48102	-754.14893	412.61456	954.51117	-1158.47522	420.95502	965.87164	-938.47565	256.14423	988.82202	-1124.146	268.57629	991.07263	-956.18951	307.94583	644.62671	-1199.87341	280.09924	482.66891	-1175.50793	200.67259	236.78192	-1158.45007	172.18825	68.0194	-1103.99268	130.43307	58.13536	-1058.27856	315.63614	33.47342	-1100.28857	422.22321	639.01929	-869.83667	460.10815	522.06818	-900.33643	497.67303	262.14337	-893.19263	555.43054	82.63299	-931.15991	529.21686	50.42689	-979.07306	715.20966	81.79898	-929.7536	326.10428	1698.83179	-1061.10657	NaN	NaN	NaN	NaN	NaN	NaN	NaN	NaN	NaN	NaN	NaN	NaN	NaN	NaN	NaN
231	2.3	439.04846	1660.29883	-1104.72803	420.60681	1645.70557	-974.75446	307.77036	1607.56702	-1126.45825	290.44586	1597.47839	-998.64185	297.15948	1449.0675	-1064.92065	250.19646	1121.77173	-1048.07263	405.63159	1369.39453	-1058.46423	439.54904	1193.00293	-1063.49829	218.21976	1282.13477	-983.336	358.12939	1400.36035	-1221.86584	383.5213	1199.82617	-1293.6554	404.47803	1088.401	-1305.72864	496.84732	968.93121	-1310.33276	602.22058	908.72437	-1250.37549	558.60089	868.55609	-1289.198	635.89252	823.21368	-1277.60522	357.63556	1405.40552	-899.09448	307.40933	1210.33643	-811.4599	308.5773	1088.71753	-796.65521	310.02466	969.00446	-774.69629	353.17862	821.80188	-796.63324	298.37143	831.67084	-759.75433	325.21591	751.46478	-753.17462	418.5285	953.75165	-1158.10425	427.30463	964.98248	-938.05524	262.15143	987.97729	-1123.41699	274.99686	990.11261	-955.44598	313.00635	644.04541	-1199.39819	284.55945	482.13828	-1175.15784	203.01326	236.90654	-1158.24133	172.58391	68.45008	-1103.85535	130.66832	58.78571	-1058.0365	315.71072	33.36882	-1100.11584	428.95303	638.17023	-870.16138	466.60999	521.35486	-900.69116	505.57507	261.64801	-893.07867	564.61804	82.41126	-930.93799	538.69739	49.8667	-978.90302	724.24481	83.37042	-928.93939	331.75919	1697.97839	-1059.95581	NaN	NaN	NaN	NaN	NaN	NaN	NaN	NaN	NaN	NaN	NaN	NaN	NaN	NaN	NaN
232	2.31	444.73425	1659.49463	-1103.49963	426.42676	1644.81128	-973.57489	313.49182	1606.70935	-1125.18457	296.28339	1596.50793	-997.41571	303.16443	1448.04407	-1063.84961	256.32388	1120.82385	-1047.21326	411.5892	1368.57495	-1057.521	445.71393	1192.24023	-1062.74902	224.27538	1281.11169	-982.26501	363.85522	1399.58276	-1220.79883	389.10413	1199.07959	-1292.50171	410.03552	1087.63855	-1304.64478	503.17871	968.80383	-1308.89075	609.01001	909.63586	-1248.77795	565.66705	868.97791	-1287.42529	643.2348	824.2066	-1275.63635	363.64532	1404.41858	-898.04639	313.07751	1209.29199	-810.72083	314.52594	1087.70874	-795.78326	315.76105	968.00891	-773.77411	358.75256	820.73358	-795.67657	303.89963	830.69989	-758.88983	330.74014	750.39069	-752.29663	424.52072	953.00958	-1157.61218	433.64877	964.0094	-937.63751	268.22092	987.13275	-1122.71655	281.27094	989.11768	-954.64569	318.2316	643.40076	-1198.89636	289.09497	481.50064	-1174.78259	205.33891	236.88701	-1157.95703	172.95499	68.85253	-1103.70898	130.85712	59.42538	-1057.91406	315.80621	33.32933	-1100.03357	435.50696	637.25104	-870.18677	473.18719	520.58826	-900.96167	513.3092	261.01166	-892.9325	572.72705	81.93543	-930.87299	547.16882	49.00282	-978.90948	732.19244	84.32732	-928.40698	337.47388	1697.09473	-1058.65479	NaN	NaN	NaN	NaN	NaN	NaN	NaN	NaN	NaN	NaN	NaN	NaN	NaN	NaN	NaN
233	2.32	450.43668	1658.66711	-1102.25476	432.23331	1643.88538	-972.3114	319.18494	1605.80225	-1123.83765	302.11069	1595.4845	-996.02637	309.08899	1447.10181	-1062.65259	262.50763	1119.87317	-1046.32166	417.65225	1367.7666	-1056.47119	451.87341	1191.4541	-1061.92651	230.43117	1280.10779	-981.17639	369.69934	1398.93921	-1219.76355	394.72668	1198.37756	-1291.4519	415.79984	1087.02795	-1303.61926	509.40521	968.6001	-1307.74792	615.66559	910.38049	-1247.1394	572.61432	869.30872	-1285.65698	650.51935	825.0907	-1273.63904	369.72565	1403.37659	-896.93823	319.15808	1208.27368	-809.71381	320.40723	1086.65381	-794.83478	321.65942	966.97693	-772.81177	364.43961	819.82776	-794.85193	309.64154	829.65692	-757.88861	336.32788	749.35681	-751.28998	430.61005	952.17468	-1157.12683	440.15857	963.12439	-937.09656	274.12549	986.3006	-1121.98669	287.82782	988.07104	-953.94745	323.49252	642.58972	-1198.44556	293.83829	480.76379	-1174.39612	207.86441	236.97148	-1157.57837	173.29297	69.29031	-1103.63037	130.97879	60.10354	-1057.87537	315.95782	33.45963	-1100.01636	442.10764	636.32294	-870.03662	479.90942	519.84637	-901.0921	520.46869	260.17432	-892.72943	579.85547	81.16368	-930.93719	553.64441	48.23699	-978.96173	739.02509	84.44633	-928.19885	343.16318	1696.16772	-1057.22168	NaN	NaN	NaN	NaN	NaN	NaN	NaN	NaN	NaN	NaN	NaN	NaN	NaN	NaN	NaN
